<svg xmlns="http://www.w3.org/2000/svg" viewBox="0 0 1024 1536">
<path d="M 631 1170 L 637 1174 L 634 1215 L 629 1218 L 643 1218 L 638 1215 L 640 1181 L 658 1218 L 676 1181 L 678 1183 L 679 1212 L 674 1218 L 691 1218 L 685 1212 L 683 1179 L 684 1173 L 689 1170 L 676 1171 L 661 1205 L 655 1197 L 644 1171 Z" fill="#d40000"></path>
<path d="M 550 1170 L 555 1174 L 555 1202 L 560 1215 L 568 1219 L 581 1219 L 589 1215 L 594 1204 L 594 1175 L 599 1170 L 584 1170 L 591 1176 L 591 1203 L 588 1211 L 582 1216 L 571 1216 L 563 1207 L 562 1175 L 567 1170 Z" fill="#d40000"></path>
<path d="M 486 1170 L 492 1174 L 492 1215 L 486 1218 L 521 1218 L 523 1207 L 515 1216 L 499 1215 L 499 1174 L 505 1170 Z" fill="#d40000"></path>
<path d="M 406 1170 L 412 1177 L 412 1208 L 416 1215 L 423 1219 L 438 1219 L 445 1215 L 450 1205 L 450 1175 L 456 1170 L 440 1170 L 444 1171 L 447 1176 L 447 1203 L 444 1211 L 437 1216 L 427 1216 L 419 1207 L 418 1176 L 423 1170 Z" fill="#d40000"></path>
<path d="M 375 1168 L 372 1170 L 333 1169 L 333 1181 L 338 1173 L 349 1172 L 351 1174 L 351 1215 L 345 1218 L 364 1218 L 358 1214 L 358 1174 L 360 1172 L 370 1173 L 376 1181 Z" fill="#d40000"></path>
<path d="M 335 1093 L 351 1095 L 360 1104 L 361 1121 L 358 1127 L 349 1134 L 336 1134 L 333 1131 L 333 1095 Z" fill="#d40000"></path>
<path d="M 223 1073 L 226 1076 L 235 1101 L 232 1104 L 213 1103 Z" fill="#d40000"></path>
<path d="M 877 1071 L 889 1102 L 887 1104 L 868 1104 L 866 1102 Z" fill="#d40000"></path>
<path d="M 508 1071 L 520 1101 L 518 1104 L 497 1103 Z" fill="#d40000"></path>
<path d="M 745 1055 L 755 1058 L 761 1064 L 764 1072 L 764 1081 L 757 1093 L 742 1097 L 737 1095 L 737 1059 Z" fill="#d40000"></path>
<path d="M 413 1055 L 426 1058 L 434 1069 L 433 1087 L 423 1096 L 409 1095 L 409 1057 Z" fill="#d40000"></path>
<path d="M 336 1055 L 342 1055 L 351 1059 L 355 1065 L 355 1080 L 347 1088 L 335 1089 L 333 1087 L 333 1058 Z" fill="#d40000"></path>
<path d="M 800 1052 L 800 1054 L 807 1056 L 809 1062 L 809 1129 L 805 1136 L 800 1136 L 800 1139 L 831 1139 L 831 1136 L 825 1136 L 822 1132 L 822 1060 L 825 1055 L 831 1054 L 831 1052 Z" fill="#d40000"></path>
<path d="M 716 1052 L 716 1054 L 723 1057 L 725 1063 L 725 1127 L 722 1135 L 717 1136 L 716 1139 L 747 1138 L 746 1136 L 741 1136 L 737 1130 L 737 1103 L 739 1101 L 746 1101 L 770 1135 L 782 1140 L 792 1139 L 791 1136 L 788 1136 L 779 1127 L 761 1100 L 761 1097 L 774 1087 L 777 1079 L 777 1068 L 773 1060 L 759 1052 Z" fill="#d40000"></path>
<path d="M 643 1052 L 650 1055 L 653 1062 L 653 1129 L 651 1134 L 644 1136 L 643 1139 L 701 1139 L 704 1119 L 695 1131 L 687 1134 L 670 1134 L 666 1131 L 665 1099 L 667 1096 L 687 1097 L 691 1105 L 693 1105 L 692 1082 L 687 1090 L 666 1090 L 666 1058 L 669 1056 L 690 1058 L 694 1062 L 696 1070 L 698 1070 L 699 1052 Z" fill="#d40000"></path>
<path d="M 387 1052 L 387 1054 L 393 1055 L 396 1060 L 396 1130 L 391 1136 L 386 1138 L 418 1139 L 418 1136 L 412 1136 L 409 1132 L 409 1102 L 418 1101 L 432 1124 L 442 1135 L 448 1139 L 465 1139 L 451 1127 L 432 1099 L 442 1091 L 447 1083 L 448 1072 L 444 1060 L 431 1052 Z" fill="#d40000"></path>
<path d="M 311 1052 L 311 1054 L 317 1055 L 320 1059 L 320 1131 L 316 1136 L 311 1136 L 310 1138 L 349 1139 L 363 1135 L 372 1127 L 375 1121 L 373 1101 L 366 1094 L 356 1089 L 365 1082 L 369 1074 L 367 1061 L 363 1056 L 354 1052 Z" fill="#d40000"></path>
<path d="M 112 1052 L 112 1054 L 118 1055 L 121 1061 L 121 1130 L 117 1136 L 112 1136 L 112 1139 L 171 1139 L 175 1116 L 172 1117 L 168 1127 L 158 1134 L 139 1134 L 134 1129 L 134 1062 L 136 1056 L 143 1054 L 143 1052 Z" fill="#d40000"></path>
<path d="M 880 1051 L 851 1127 L 847 1134 L 839 1138 L 865 1139 L 865 1136 L 860 1136 L 857 1133 L 863 1110 L 884 1108 L 892 1110 L 899 1128 L 898 1135 L 893 1136 L 893 1139 L 923 1139 L 923 1136 L 919 1136 L 911 1125 L 884 1053 Z" fill="#d40000"></path>
<path d="M 511 1051 L 480 1132 L 470 1138 L 495 1139 L 495 1136 L 489 1135 L 488 1128 L 495 1109 L 499 1108 L 523 1110 L 530 1129 L 529 1135 L 525 1136 L 524 1139 L 554 1139 L 554 1136 L 549 1136 L 543 1129 L 515 1052 Z" fill="#d40000"></path>
<path d="M 226 1051 L 196 1130 L 191 1136 L 186 1138 L 211 1139 L 211 1136 L 206 1136 L 203 1133 L 210 1110 L 234 1108 L 240 1113 L 246 1132 L 243 1136 L 239 1136 L 239 1139 L 269 1139 L 270 1137 L 265 1136 L 259 1129 L 229 1051 Z" fill="#d40000"></path>
<path d="M 578 1056 L 562 1072 L 558 1084 L 557 1103 L 562 1119 L 570 1129 L 587 1139 L 609 1141 L 627 1137 L 630 1132 L 632 1117 L 630 1117 L 627 1124 L 619 1132 L 611 1136 L 599 1136 L 587 1130 L 580 1123 L 575 1114 L 572 1096 L 575 1075 L 588 1058 L 595 1055 L 613 1055 L 624 1062 L 630 1074 L 630 1054 L 615 1050 L 595 1050 Z" fill="#d40000"></path>
<path d="M 682 984 L 674 988 L 668 998 L 668 1006 L 678 1017 L 673 1007 L 673 999 Z" fill="#d40000"></path>
<path d="M 660 981 L 656 982 L 649 989 L 651 995 L 660 985 Z" fill="#d40000"></path>
<path d="M 653 964 L 640 976 L 633 986 L 633 995 L 638 999 L 639 985 L 653 967 Z" fill="#d40000"></path>
<path d="M 741 938 L 719 954 L 702 963 L 699 968 L 707 971 L 721 965 L 738 949 Z" fill="#d40000"></path>
<path d="M 555 908 L 566 930 L 567 946 L 561 959 L 544 976 L 542 993 L 548 1007 L 558 1017 L 549 998 L 549 982 L 559 965 L 579 944 L 582 948 L 582 953 L 573 983 L 575 982 L 586 962 L 589 944 L 575 922 Z" fill="#d40000"></path>
<path d="M 491 902 L 481 910 L 476 920 L 476 931 L 480 943 L 496 971 L 502 988 L 503 982 L 487 943 L 486 931 L 488 929 L 505 944 L 516 962 L 518 993 L 528 1008 L 539 1017 L 527 1000 L 526 973 L 523 960 L 499 929 Z" fill="#d40000"></path>
<path d="M 342 902 L 336 904 L 336 911 L 328 932 L 312 950 L 307 959 L 304 998 L 293 1018 L 303 1010 L 311 997 L 314 962 L 325 944 L 338 930 L 344 930 L 342 945 L 328 975 L 328 989 L 330 989 L 335 972 L 351 945 L 355 930 L 354 920 L 351 912 Z" fill="#d40000"></path>
<path d="M 372 887 L 378 899 L 379 915 L 364 981 L 371 977 L 375 969 L 388 911 L 392 913 L 395 922 L 396 982 L 400 992 L 411 1001 L 421 1001 L 428 997 L 433 989 L 436 979 L 435 928 L 441 911 L 444 912 L 448 924 L 457 967 L 465 977 L 468 977 L 463 966 L 461 948 L 451 911 L 458 887 L 441 896 L 428 913 L 425 924 L 428 978 L 424 994 L 418 1000 L 412 999 L 404 986 L 407 926 L 403 912 L 390 896 L 382 890 Z" fill="#d40000"></path>
<path d="M 658 885 L 661 897 L 660 911 L 656 918 L 642 931 L 646 931 L 662 919 L 673 901 L 680 908 L 682 922 L 680 934 L 672 949 L 687 938 L 691 929 L 690 919 L 686 910 L 673 896 Z" fill="#d40000"></path>
<path d="M 615 885 L 612 885 L 596 896 L 588 909 L 589 915 L 608 934 L 618 950 L 618 957 L 610 975 L 611 979 L 625 964 L 627 951 L 623 944 L 598 919 L 596 909 L 599 900 L 604 895 L 607 895 L 624 911 Z" fill="#d40000"></path>
<path d="M 491 802 L 494 805 L 507 806 L 532 805 L 534 803 L 533 801 Z" fill="#d40000"></path>
<path d="M 614 642 L 611 642 L 592 690 L 576 727 L 570 736 L 565 751 L 564 767 L 550 795 L 544 814 L 526 830 L 521 832 L 501 832 L 488 824 L 479 811 L 474 809 L 480 823 L 496 839 L 508 843 L 524 841 L 538 831 L 550 814 L 565 783 L 569 771 L 571 750 L 597 693 Z" fill="#d40000"></path>
<path d="M 410 642 L 410 649 L 424 687 L 450 741 L 455 773 L 464 789 L 468 793 L 472 793 L 473 791 L 463 778 L 459 767 L 459 750 L 455 738 L 437 703 L 413 643 Z" fill="#d40000"></path>
<path d="M 322 611 L 322 615 L 328 623 L 336 629 L 341 629 L 339 619 L 344 613 L 380 593 L 405 575 L 423 556 L 445 525 L 452 520 L 481 514 L 535 514 L 567 519 L 581 527 L 596 544 L 608 563 L 624 578 L 642 591 L 682 613 L 687 619 L 686 630 L 703 615 L 703 610 L 640 574 L 617 555 L 582 520 L 566 512 L 556 510 L 520 510 L 515 507 L 504 510 L 464 510 L 451 515 L 434 528 L 415 548 L 382 576 Z" fill="#d40000"></path>
<path d="M 743 457 L 672 458 L 592 466 L 557 472 L 528 483 L 518 492 L 524 495 L 562 483 L 603 477 L 721 469 L 737 463 Z" fill="#d40000"></path>
<path d="M 279 457 L 284 463 L 304 469 L 436 479 L 470 485 L 502 495 L 505 493 L 505 490 L 499 484 L 488 478 L 447 468 L 324 456 L 285 455 Z" fill="#d40000"></path>
<path d="M 732 384 L 768 416 L 776 434 L 775 469 L 789 463 L 803 447 L 803 438 L 799 429 L 787 416 L 767 400 L 745 388 Z" fill="#d40000"></path>
<path d="M 292 384 L 277 388 L 256 400 L 235 416 L 224 429 L 220 438 L 220 446 L 234 463 L 245 469 L 248 468 L 246 439 L 247 432 L 255 416 Z" fill="#d40000"></path>
</svg>